<svg xmlns="http://www.w3.org/2000/svg" viewBox="0 0 64 64"><g transform="translate(-9,-4) scale(0.036)"><path fill="#4763B8" d="M 463.201 704.222 C 472.635 703.575 480.951 707.594 482.122 717.812 C 486.288 754.165 469.055 795.574 460.708 831.311 C 439.322 922.877 424.234 1031.57 469.564 1118.35 C 515.44 1201.96 610.018 1177.58 686.473 1199.62 C 718.813 1208.95 740.493 1222.32 766.417 1243.24 C 851.842 1312.17 870.357 1414.57 920.563 1506.53 C 981.681 1618.48 1080.63 1647.03 1200.44 1636.29 C 1225.27 1635.41 1263.58 1627.81 1287.1 1634.34 C 1322.1 1644.06 1265.95 1686.9 1256.94 1693.28 C 1193.77 1738.02 1122.31 1767.86 1048.3 1789.22 C 1043.27 1790.49 1038.24 1791.74 1033.2 1792.95 C 910.165 1822.49 790.098 1807.31 681.53 1740.81 C 708.382 1704.15 726.83 1671.2 734.17 1625.47 C 743.991 1566.44 729.69 1505.94 694.478 1457.55 C 661.462 1411.7 611.514 1380.92 555.715 1372.04 C 485.913 1361.32 427.156 1385.88 372.167 1426.23 C 359.651 1403.34 348.442 1379.77 338.596 1355.62 C 273.626 1195.83 278.309 1033.2 345.999 875.198 C 365.145 830.506 416.958 723.051 463.201 704.222 z"/><path fill="#4763B8" d="M 500.916 1413.05 C 598.649 1404.42 684.823 1476.77 693.242 1574.52 C 701.661 1672.27 629.127 1758.29 531.358 1766.5 C 433.885 1774.68 348.183 1702.42 339.789 1604.96 C 331.395 1507.5 403.479 1421.65 500.916 1413.05 z"/><path fill="#33509E" d="M 1430.78 638.165 C 1512.14 634.905 1657 736.361 1715.24 789.523 C 1736.71 809.252 1756.44 830.797 1774.21 853.917 C 1835.24 933.588 1868.09 1029.45 1854.75 1130.09 C 1821.62 1126.75 1793.71 1127.68 1761.45 1136.65 C 1649.26 1167.82 1574.98 1292.1 1608.97 1405.16 C 1632.23 1482.49 1686.85 1533.48 1755.04 1571.33 C 1683.52 1695.15 1595.21 1774.39 1461.29 1827.1 C 1378.68 1857.83 1284.67 1871.88 1196.6 1868.22 C 1182.61 1867.64 1108.62 1859.75 1116.68 1836.46 C 1126.72 1807.5 1206.12 1787.49 1233.8 1778 C 1251.25 1772.18 1268.42 1765.55 1285.26 1758.14 C 1316.66 1744.3 1346.52 1727.2 1374.34 1707.12 C 1395.98 1691.56 1449.84 1646.58 1459.7 1624.84 C 1483.6 1572.18 1454.22 1495.82 1440.06 1444.76 C 1435.27 1427.46 1431.42 1409.92 1428.54 1392.2 C 1414.5 1303.6 1429.43 1219.39 1479.5 1144.44 C 1498.51 1116.67 1518.48 1089.36 1536.05 1060.78 C 1598.72 958.844 1574 845.739 1501.41 757.388 C 1481.24 732.846 1458.98 707.763 1439.69 682.282 C 1433.43 674.014 1421.71 656.796 1422.89 645.534 C 1423.61 641.506 1427.37 639.853 1430.78 638.165 z"/><path fill="#33509E" d="M 1800.17 1177.64 C 1896.4 1166.68 1983.28 1235.87 1994.15 1332.11 C 2005.01 1428.36 1935.75 1515.17 1839.49 1525.95 C 1743.36 1536.71 1656.69 1467.55 1645.84 1371.44 C 1634.99 1275.32 1704.06 1188.58 1800.17 1177.64 z"/><path fill="#33427C" d="M 1188.41 284.666 C 1252.87 286.996 1312.63 297.147 1372.5 321.989 C 1487.56 369.732 1585.84 456.931 1651.3 562.509 C 1665.65 585.656 1679.18 609.83 1689.83 634.965 C 1695.58 649.239 1702.35 667.517 1696.64 682.715 C 1692.56 694.984 1677.67 691.498 1668.99 686.465 C 1629.17 663.384 1591.75 631.131 1554.52 604.174 C 1482.53 552.039 1388.17 501.855 1306.51 565.784 C 1277.59 588.426 1255.01 617.331 1226.59 640.591 C 1182.87 677.156 1131.45 705.472 1075.96 719.171 C 1040.23 728.08 1003.36 731.499 966.604 729.308 C 895.838 725.229 862.406 710.552 787.224 722.894 C 682.511 747.68 631.35 818.576 581.204 906.595 C 569.567 927.021 555.474 957.469 539.24 973.907 C 536.186 977 530.585 982.264 525.828 981.844 C 522.71 981.568 520.475 979.615 518.873 977.08 C 501.912 950.236 521.502 816.21 527.936 783.268 C 552.595 657.023 604.397 541.26 703.82 456.48 C 721.12 441.728 739.534 428.847 758.371 416.152 C 775.907 448.928 797.22 477.955 825.474 502.514 C 870.522 542.013 929.525 561.803 989.28 557.456 C 1046.98 553.083 1096.71 526.177 1134.01 482.19 C 1169.49 440.004 1189.45 386.934 1190.55 331.821 C 1191 315.8 1189.66 300.594 1188.41 284.666 z"/><path fill="#33427C" d="M 958.051 147.787 C 1057.7 139.98 1144.82 214.4 1152.69 314.044 C 1160.56 413.688 1086.19 500.858 986.553 508.785 C 886.828 516.72 799.568 442.275 791.694 342.546 C 783.82 242.816 858.317 155.601 958.051 147.787 z"/></g></svg>
